<?xml version="1.0" standalone="no"?>
<!DOCTYPE svg PUBLIC "-//W3C//DTD SVG 20010904//EN"
 "http://www.w3.org/TR/2001/REC-SVG-20010904/DTD/svg10.dtd">
<svg version="1.0" xmlns="http://www.w3.org/2000/svg"
 width="379.000000pt" height="225.000000pt" viewBox="0 0 379.000000 225.000000"
 preserveAspectRatio="xMidYMid meet">

<g transform="translate(0.000000,225.000000) scale(0.100000,-0.100000)"
fill="#000000" stroke="none">
<path d="M1725 2095 c-522 -88 -902 -580 -847 -1097 21 -188 68 -322 167 -474
96 -148 234 -269 400 -352 149 -74 276 -103 450 -103 181 0 303 29 465 112
505 257 700 859 445 1369 -92 183 -269 361 -450 452 -185 93 -421 128 -630 93z
m166 -177 l2 -23 4 23 c4 18 11 22 38 22 19 0 36 -3 38 -7 3 -5 -2 -61 -10
-126 -14 -106 -13 -140 2 -125 3 3 10 56 17 119 6 63 12 116 14 118 7 8 64
-22 64 -35 0 -7 -9 -52 -20 -99 -22 -95 -24 -115 -12 -115 5 0 17 39 26 88 27
134 24 127 49 105 21 -18 21 -18 7 1 -14 18 -13 19 5 12 11 -5 35 -12 53 -18
142 -41 339 -195 416 -327 20 -34 36 -66 36 -72 0 -5 4 -9 10 -9 5 0 9 -3 8
-7 -1 -5 3 -19 9 -33 13 -29 25 -60 29 -75 1 -5 5 -17 9 -26 7 -20 -19 -49
-44 -49 -42 0 -161 -33 -161 -45 0 -9 28 -5 107 13 l107 25 18 -23 c33 -41 25
-47 -79 -54 -109 -8 -143 -14 -143 -27 0 -12 25 -11 142 6 110 17 118 15 118
-35 l0 -25 -130 4 c-90 2 -130 0 -130 -8 0 -7 42 -11 130 -11 l130 0 0 -25 c0
-14 -4 -33 -9 -43 -5 -9 -16 -34 -25 -56 -14 -32 -20 -37 -39 -32 -103 29
-189 48 -194 42 -13 -13 14 -24 105 -41 84 -16 92 -19 86 -38 -4 -14 -3 -17 6
-12 9 6 9 1 -1 -16 -7 -13 -11 -25 -10 -27 12 -12 -76 -187 -118 -236 -68 -79
-126 -136 -164 -162 -23 -16 -43 -32 -45 -36 -2 -5 -7 -8 -12 -8 -4 0 -29 -12
-56 -27 -27 -15 -54 -28 -61 -29 -7 -1 -27 -9 -44 -18 -24 -12 -35 -13 -45 -5
-10 9 -18 8 -28 0 -17 -14 -17 -14 -42 112 -10 48 -22 87 -26 87 -12 0 -10
-28 12 -118 11 -46 20 -90 20 -97 0 -12 -47 -45 -63 -45 -2 0 -9 56 -17 125
-7 69 -17 125 -21 125 -11 0 -11 -14 5 -140 7 -58 10 -109 6 -113 -4 -4 -20
-9 -36 -10 l-29 -2 -6 75 -5 75 -2 -77 c-2 -82 -4 -84 -51 -71 -26 7 -25 0 -5
196 4 34 3 57 -3 57 -5 0 -15 -52 -21 -116 -6 -64 -13 -119 -16 -121 -6 -7
-66 26 -66 36 0 5 11 56 24 112 23 97 25 130 7 101 -4 -7 -16 -55 -26 -107
-21 -107 -21 -106 -115 -73 -30 11 -61 21 -67 22 -34 6 -176 110 -241 176 -69
71 -163 207 -166 240 -1 8 -6 24 -12 35 -16 29 -26 75 -16 75 5 0 18 -11 30
-23 l22 -24 86 30 c54 19 82 33 75 40 -6 6 -38 -2 -89 -21 l-81 -29 -25 26
c-14 15 -26 30 -26 33 0 3 44 14 98 24 53 9 101 21 106 26 24 20 -12 18 -110
-6 -61 -15 -111 -23 -116 -18 -19 19 -48 120 -48 167 0 77 -1 77 134 59 109
-14 139 -14 123 2 -7 8 -131 23 -189 24 -27 0 -48 3 -48 8 0 4 9 21 19 39 l20
31 48 -14 c78 -24 162 -42 168 -36 3 3 5 9 5 13 0 8 -132 39 -170 39 -44 0
-50 18 -29 84 68 212 252 411 458 496 95 40 115 45 105 29 -7 -12 -5 -12 9 0
20 16 20 18 42 -99 16 -79 28 -110 39 -99 3 2 -6 51 -20 108 -13 56 -21 107
-18 112 3 5 18 16 33 24 l29 14 5 -47 c4 -26 9 -82 13 -124 4 -43 11 -78 17
-78 10 0 8 33 -9 198 l-7 62 37 0 c30 0 36 -4 37 -22z m229 -1612 c0 -3 -4 -8
-10 -11 -5 -3 -10 -1 -10 4 0 6 5 11 10 11 6 0 10 -2 10 -4z"/>
<path d="M1891 1781 c-1 -66 3 -100 9 -96 12 8 13 165 1 184 -6 9 -10 -23 -10
-88z"/>
<path d="M2117 1753 c-28 -81 -32 -103 -19 -103 12 0 61 156 53 169 -4 6 -20
-24 -34 -66z"/>
<path d="M1640 1809 c0 -20 40 -142 51 -153 20 -22 17 5 -6 74 -25 74 -45 109
-45 79z"/>
<path d="M1578 1744 c-7 -11 42 -124 53 -124 15 0 9 23 -20 79 -15 30 -30 50
-33 45z"/>
<path d="M2177 1685 c-14 -30 -22 -57 -17 -60 4 -3 20 20 34 51 29 63 29 64
18 64 -4 0 -20 -25 -35 -55z"/>
<path d="M1520 1669 c0 -17 40 -79 51 -79 15 0 11 13 -16 53 -27 39 -35 45
-35 26z"/>
<path d="M2237 1638 c-27 -38 -30 -57 -8 -43 14 8 43 64 39 75 -2 4 -16 -10
-31 -32z"/>
<path d="M1479 1593 c21 -38 38 -56 44 -46 4 6 -3 22 -14 37 -23 30 -45 36
-30 9z"/>
<path d="M2292 1587 c-23 -25 -28 -37 -13 -37 10 0 45 50 39 56 -3 2 -14 -6
-26 -19z"/>
<path d="M1442 1530 c21 -29 38 -39 38 -22 0 10 -43 52 -53 52 -4 0 2 -13 15
-30z"/>
<path d="M2339 1541 c-13 -11 -21 -22 -17 -26 9 -9 26 2 38 26 13 24 8 24 -21
0z"/>
<path d="M1395 1480 c15 -16 33 -26 38 -23 6 4 -1 16 -17 30 -39 33 -55 28
-21 -7z"/>
<path d="M2380 1490 c-14 -10 -21 -22 -17 -26 4 -4 20 4 35 19 31 31 19 36
-18 7z"/>
<path d="M2437 1444 c-20 -14 -37 -29 -37 -34 0 -16 13 -11 53 19 48 36 34 49
-16 15z"/>
<path d="M1318 1448 c19 -24 70 -49 77 -38 3 5 -9 19 -27 30 -38 23 -67 27
-50 8z"/>
<path d="M1240 1403 c0 -7 101 -63 115 -63 3 0 5 6 5 13 0 10 -32 27 -102 53
-10 3 -18 2 -18 -3z"/>
<path d="M2483 1384 c-29 -13 -53 -28 -53 -34 0 -5 3 -10 6 -10 15 0 114 53
114 61 0 13 -8 11 -67 -17z"/>
<path d="M2610 1352 c0 -5 -34 -19 -75 -32 -41 -13 -75 -29 -75 -36 0 -14 19
-10 113 26 l59 22 26 -23 c16 -14 13 -8 -7 14 -37 39 -41 42 -41 29z"/>
<path d="M1148 1328 c-13 -13 -16 -17 -6 -9 16 12 28 10 100 -17 52 -20 86
-28 92 -22 9 9 -11 20 -89 45 -22 7 -47 16 -56 19 -11 5 -25 -1 -41 -16z"/>
<path d="M1775 1246 c-38 -16 -55 -53 -55 -116 0 -49 1 -50 30 -50 28 0 30 2
30 41 0 52 15 79 43 79 41 0 47 -17 47 -132 l0 -108 30 0 30 0 0 114 c0 120 2
126 50 126 26 0 30 -19 30 -136 l0 -104 30 0 30 0 0 120 c0 114 -1 122 -24
145 -32 32 -69 40 -116 26 -26 -8 -46 -8 -65 -1 -34 13 -53 12 -90 -4z"/>
<path d="M1090 1090 c0 -6 42 -10 105 -10 63 0 105 4 105 10 0 6 -42 10 -105
10 -63 0 -105 -4 -105 -10z"/>
<path d="M1727 1053 c-4 -3 -7 -26 -7 -50 0 -41 1 -43 30 -43 29 0 30 1 30 50
0 46 -2 50 -23 50 -13 0 -27 -3 -30 -7z"/>
<path d="M1205 1028 c-38 -5 -83 -13 -100 -18 -25 -6 -19 -8 30 -8 87 0 170
11 168 23 -3 13 -16 14 -98 3z"/>
<path d="M2490 1026 c0 -11 9 -16 28 -17 15 0 63 -4 107 -9 47 -5 84 -5 90 1
5 5 7 9 4 9 -13 0 -178 21 -201 26 -21 4 -28 2 -28 -10z"/>
<path d="M2460 891 c0 -10 100 -51 123 -51 7 0 18 -5 24 -11 7 -7 13 -7 17 -1
8 13 2 17 -79 47 -72 27 -85 30 -85 16z"/>
<path d="M1292 806 c-77 -39 -72 -55 6 -20 64 28 65 29 61 42 -2 6 -32 -4 -67
-22z"/>
<path d="M2435 829 c-9 -14 -8 -14 58 -43 75 -34 80 -19 7 22 -38 21 -61 28
-65 21z"/>
<path d="M1345 744 l-40 -34 48 22 c26 12 47 25 47 29 0 20 -19 14 -55 -17z"/>
<path d="M2400 765 c0 -8 18 -24 40 -35 22 -11 40 -16 40 -12 0 5 -18 21 -40
36 -30 20 -40 23 -40 11z"/>
<path d="M1394 688 c-20 -21 -23 -27 -9 -20 38 20 58 39 48 45 -5 4 -23 -8
-39 -25z"/>
<path d="M2360 707 c0 -7 14 -21 30 -30 36 -21 39 -9 7 21 -27 25 -37 28 -37
9z"/>
<path d="M1447 652 c-25 -27 -21 -35 8 -16 25 16 33 34 17 34 -5 0 -16 -8 -25
-18z"/>
<path d="M2330 645 c13 -14 27 -25 32 -25 15 0 -26 49 -41 50 -10 0 -7 -8 9
-25z"/>
<path d="M1491 600 c-12 -17 -21 -33 -19 -36 8 -7 50 44 46 56 -2 6 -14 -3
-27 -20z"/>
<path d="M2270 617 c0 -8 11 -24 25 -37 30 -28 34 -7 6 28 -22 25 -31 28 -31
9z"/>
<path d="M1542 549 c-13 -22 -21 -43 -19 -46 6 -5 57 67 57 79 0 19 -17 5 -38
-33z"/>
<path d="M2210 583 c0 -15 54 -85 58 -74 4 13 -36 81 -49 81 -5 0 -9 -3 -9 -7z"/>
<path d="M2156 552 c-7 -12 43 -122 57 -122 11 0 1 33 -28 89 -12 25 -25 39
-29 33z"/>
<path d="M1597 493 c-30 -70 -25 -91 7 -30 30 55 40 87 28 87 -5 0 -21 -26
-35 -57z"/>
<path d="M1665 451 c-28 -84 -29 -89 -19 -93 11 -5 64 156 55 165 -5 5 -20
-25 -36 -72z"/>
<path d="M2087 523 c-7 -12 54 -174 64 -168 8 5 -37 153 -51 168 -4 5 -10 5
-13 0z"/>
<path d="M1890 458 c0 -36 4 -35 14 5 4 16 2 27 -4 27 -5 0 -10 -14 -10 -32z"/>
</g>
</svg>
